<?xml version="1.0" standalone="no"?>
<!DOCTYPE svg PUBLIC "-//W3C//DTD SVG 20010904//EN"
 "http://www.w3.org/TR/2001/REC-SVG-20010904/DTD/svg10.dtd">
<svg version="1.0" xmlns="http://www.w3.org/2000/svg"
 width="512.000000pt" height="512.000000pt" viewBox="0 0 512.000000 512.000000"
 preserveAspectRatio="xMidYMid meet">

<g transform="translate(0.000000,512.000000) scale(0.100000,-0.100000)"
fill="#000000" stroke="none">
<path d="M2556 4889 c-623 -66 -1155 -492 -1351 -1083 -135 -405 -104 -839 86
-1217 28 -57 78 -142 110 -189 66 -96 205 -260 220 -260 6 0 142 33 302 74
l292 74 270 -12 270 -12 279 122 c225 98 284 121 299 113 33 -18 51 -77 51
-170 0 -77 -3 -93 -32 -152 -52 -105 -109 -150 -303 -236 l-164 -72 -58 -80
c-32 -45 -56 -83 -53 -86 11 -11 234 20 341 47 449 116 824 420 1035 840 217
434 223 954 14 1390 -159 332 -406 585 -735 750 -256 130 -585 189 -873 159z
m-85 -425 c100 -29 222 -112 217 -147 -6 -40 -32 -43 -92 -13 -48 24 -65 28
-115 24 -65 -5 -141 -45 -141 -75 0 -9 23 -40 50 -69 59 -62 59 -63 -19 -138
l-50 -49 59 -71 c32 -39 124 -136 204 -216 l146 -145 225 225 c173 173 237
244 275 305 38 60 74 101 144 162 139 120 126 117 187 58 80 -79 81 -70 -25
-193 -75 -85 -112 -119 -178 -160 -65 -40 -132 -101 -306 -275 l-222 -222 114
-114 c68 -68 116 -109 120 -102 19 30 25 25 356 -274 73 -66 169 -152 213
-191 97 -87 116 -119 117 -199 0 -49 -5 -69 -26 -101 -36 -55 -84 -86 -144
-92 -83 -8 -127 16 -216 116 -43 48 -103 114 -134 147 -87 95 -295 327 -325
364 -25 29 -27 36 -16 53 12 19 4 30 -98 132 l-111 111 -85 -85 -85 -84 47
-48 47 -48 -59 -60 c-41 -41 -67 -60 -81 -58 -15 2 -88 -65 -286 -263 -162
-163 -276 -269 -292 -273 -38 -9 -72 12 -154 98 -110 116 -123 89 199 412 179
179 270 277 266 287 -3 9 19 38 59 78 l64 63 45 -44 45 -44 85 84 85 85 -137
138 c-76 77 -174 168 -217 203 l-79 65 -49 -48 -48 -47 -29 17 c-42 25 -54 22
-95 -23 -35 -39 -36 -41 -21 -70 8 -16 15 -35 15 -43 0 -8 -27 -40 -60 -71
-48 -46 -63 -55 -77 -47 -22 12 -263 255 -263 265 0 14 113 126 127 126 8 0
28 -7 45 -16 30 -16 31 -15 69 22 44 43 46 54 22 95 l-18 30 220 218 c242 240
255 249 371 250 33 1 85 -6 115 -15z"/>
<path d="M845 2009 c-11 -6 -113 -104 -228 -218 -221 -220 -237 -242 -217
-310 7 -24 145 -170 521 -549 282 -284 524 -525 538 -534 31 -22 92 -23 129
-4 15 8 120 108 234 223 218 220 231 239 213 310 -7 31 -1019 1053 -1067 1079
-32 17 -95 18 -123 3z"/>
</g>
</svg>
