<?xml version="1.0" standalone="no"?>
<!DOCTYPE svg PUBLIC "-//W3C//DTD SVG 20010904//EN"
 "http://www.w3.org/TR/2001/REC-SVG-20010904/DTD/svg10.dtd">
<svg version="1.0" xmlns="http://www.w3.org/2000/svg"
 width="236.000000pt" height="236.000000pt" viewBox="0 0 236.000000 236.000000"
 preserveAspectRatio="xMidYMid meet">

<g transform="translate(0.000000,236.000000) scale(0.100000,-0.100000)"
fill="#000000" stroke="none">
<path d="M734 1742 c-55 -19 -104 -48 -104 -60 0 -5 32 -18 72 -31 99 -32 163
-97 222 -222 l42 -91 29 44 c15 24 70 84 121 134 l93 92 -27 25 c-116 109
-311 156 -448 109z"/>
<path d="M553 1606 c-52 -44 -68 -102 -67 -241 1 -109 3 -127 31 -197 60 -151
194 -299 331 -365 40 -19 75 -33 78 -31 2 3 -7 29 -20 59 -53 117 -56 241 -10
375 23 68 24 72 8 125 -48 162 -161 280 -283 296 -30 4 -43 0 -68 -21z"/>
<path d="M1440 1610 c-115 -21 -260 -107 -349 -207 -63 -70 -137 -216 -152
-298 -21 -112 10 -268 65 -332 25 -29 56 -26 56 5 0 52 33 124 82 177 59 65
122 110 262 186 177 97 268 204 281 329 7 64 -6 96 -50 121 -36 21 -133 31
-195 19z"/>
<path d="M1736 1518 c-3 -7 -6 -40 -9 -74 -9 -121 -79 -214 -235 -315 -53 -34
-134 -87 -179 -116 -136 -89 -214 -194 -216 -290 0 -41 4 -50 32 -73 41 -35
93 -50 173 -50 135 0 254 56 379 180 139 137 201 271 202 435 0 68 -5 103 -21
143 -40 102 -115 197 -126 160z"/>
</g>
</svg>
